PathFileType	4	(X/Y/Z)	C:\Users\Basilio\Documents\Thesis Gigler\squatting_fais\c3dfiles\019\SLS_front_pre3\markers_experimental.trc
DataRate	CameraRate	NumFrames	NumMarkers	Units	OrigDataRate	OrigDataStartFrame	OrigNumFrames
200.000000	200.000000	4	59	mm	200.000000	1151	1316
Frame#	Time	LBHD			RBHD			C7			T10			LSHO			LUUPA			LMUPA			LDUPA			LLEP			LMEP			LRAD			LUL			LRFIN			RSHO			RUPA1			RMUPA			RDUPA			RLEP			RMEP			RRAD			RUL			RUFIN			LASI			RASI			USACR			LSACR			RSACR			LTHI1			LTHI2			LTHI3			LTHI4			LLFC			LTIB1			LTIB2			LTIB3			LTIB4			LLMAL			LMMAL			LHEE			LMT1			LMT2			LMT5			RTHI			RTHI2			RTHI3			RTHI4			RLFC			RTIB1			RTIB2			RTIB3			RTIB4			RLMAL			RMMAL			RHEE			RMT1			RMT2			RMT5			FHD			CLAV			
		X1	Y1	Z1	X2	Y2	Z2	X3	Y3	Z3	X4	Y4	Z4	X5	Y5	Z5	X6	Y6	Z6	X7	Y7	Z7	X8	Y8	Z8	X9	Y9	Z9	X10	Y10	Z10	X11	Y11	Z11	X12	Y12	Z12	X13	Y13	Z13	X14	Y14	Z14	X15	Y15	Z15	X16	Y16	Z16	X17	Y17	Z17	X18	Y18	Z18	X19	Y19	Z19	X20	Y20	Z20	X21	Y21	Z21	X22	Y22	Z22	X23	Y23	Z23	X24	Y24	Z24	X25	Y25	Z25	X26	Y26	Z26	X27	Y27	Z27	X28	Y28	Z28	X29	Y29	Z29	X30	Y30	Z30	X31	Y31	Z31	X32	Y32	Z32	X33	Y33	Z33	X34	Y34	Z34	X35	Y35	Z35	X36	Y36	Z36	X37	Y37	Z37	X38	Y38	Z38	X39	Y39	Z39	X40	Y40	Z40	X41	Y41	Z41	X42	Y42	Z42	X43	Y43	Z43	X44	Y44	Z44	X45	Y45	Z45	X46	Y46	Z46	X47	Y47	Z47	X48	Y48	Z48	X49	Y49	Z49	X50	Y50	Z50	X51	Y51	Z51	X52	Y52	Z52	X53	Y53	Z53	X54	Y54	Z54	X55	Y55	Z55	X56	Y56	Z56	X57	Y57	Z57	X58	Y58	Z58	X59	Y59	Z59	

1152	5.755	-443.5776367187501	1687.287963867188	-795.638122558594	-446.7310791015626	1681.224487304688	-655.7612915039064	-470.4140014648439	1508.97607421875	-714.2070312500001	-495.2739257812501	1216.597045898438	-703.8300781250001	-404.3427124023439	1525.9970703125	-846.8982543945315	-281.7392578125001	1505.541137695313	-904.9616699218752	-250.5258331298829	1496.278686523438	-861.597351074219	-212.1305084228516	1502.9912109375	-905.1904296875002	-144.2084503173828	1479.9345703125	-944.7204589843752	-144.1511993408203	1420.286987304688	-936.7678222656252	104.9037475585938	1474.492797851563	-854.1362915039065	103.626693725586	1486.931518554688	-920.1655883789065	175.4091339111328	1491.175903320313	-848.0985107421877	-389.0148010253907	1514.663940429688	-600.2806396484376	-269.7322998046876	1457.156372070313	-494.7322692871095	-246.3736572265626	1484.443115234375	-528.0809326171876	-200.4021148681641	1457.237182617188	-492.8873291015626	-124.9798965454102	1458.794799804688	-503.451385498047	-131.7168731689453	1398.761474609375	-516.4082031250001	109.8074951171875	1486.35205078125	-594.9311523437501	121.9906539916992	1490.436401367188	-529.7808227539064	195.7937622070313	1505.087158203125	-596.5186157226564	-351.3544616699219	1034.170532226563	-840.3989257812502	-319.6849365234376	1004.915954589844	-634.9262695312501	-497.1973266601564	1081.6689453125	-709.3811035156251	-505.5798339843751	1052.58447265625	-739.3649291992189	-494.0178527832032	1048.220825195313	-683.1829833984376	-267.1929931640626	842.7952270507815	-931.315612792969	-184.1182250976563	823.778991699219	-927.6184082031252	-158.4229583740235	858.912292480469	-908.546081542969	-158.7068328857422	768.149353027344	-925.236999511719	-99.72705078125003	695.3700561523439	-910.6734619140627	-21.33062171936036	571.3898315429689	-882.2181396484377	-76.71006011962892	519.5343627929689	-927.6572875976565	-38.24345397949219	521.4623413085939	-908.0427856445315	-27.83721733093262	443.0651855468751	-870.9383544921877	-81.3737258911133	307.9197692871094	-885.1884765625002	-55.77503585815431	320.3868408203126	-806.621765136719	-146.7252807617188	286.8349304199219	-827.8088378906252	63.1094436645508	235.5738830566407	-820.7219238281252	62.44837188720705	229.3353881835938	-859.5820922851565	12.63017845153809	203.6367340087891	-901.9114379882815	-350.0391845703126	798.1561279296877	-576.8937377929689	-306.3642272949219	753.0180664062501	-588.2791137695314	-282.2409667968751	754.8186035156251	-612.6397705078126	-323.3276367187501	668.6120605468751	-594.1785888671876	-354.9687500000001	511.5593872070314	-635.0260620117189	-311.5630187988282	338.1157226562501	-712.2250976562501	-358.4507141113282	251.9057922363282	-660.9392089843751	-326.0103454589844	253.3701629638672	-695.2012939453126	-338.3479614257813	215.4745025634766	-738.6558837890626	-394.3366088867189	124.9538497924805	-699.4530639648439	-381.2191467285157	133.9246520996094	-773.7049560546877	-455.6148681640626	105.5037918090821	-750.6522827148439	-257.8377075195313	54.76618957519533	-775.242858886719	-253.4383087158204	61.68800735473634	-730.3261718750001	-292.5690307617188	51.09876632690431	-675.5620117187501	-315.6793212890626	1722.698974609375	-653.0442504882814	-333.3107604980469	1470.0712890625	-723.1241455078126	
1153	5.76	-443.6250610351564	1687.3251953125	-795.646423339844	-446.7058715820314	1681.26806640625	-655.8096313476564	-470.2891540527345	1508.941162109375	-714.2907714843751	-495.3689270019532	1216.567626953125	-703.8835449218751	-404.332733154297	1526.000122070313	-847.0148925781252	-281.7002563476563	1505.524536132813	-905.0300292968752	-250.4540252685547	1496.290405273438	-861.6614990234377	-215.025131225586	1503.399047851563	-907.6087646484377	-144.1621704101563	1479.762817382813	-944.7327270507815	-144.2312774658203	1420.1630859375	-936.8051757812502	104.9570617675782	1474.287231445313	-854.2954711914065	103.4168853759766	1486.647216796875	-920.331237792969	175.5813293457032	1490.86083984375	-848.1245117187502	-389.021697998047	1514.724487304688	-600.3666381835939	-269.6440429687501	1456.757568359375	-494.4408569335939	-246.4480590820313	1484.565063476563	-528.2731323242189	-200.3029022216797	1457.2666015625	-492.963592529297	-124.5138015747071	1458.489868164063	-503.4995422363282	-131.4004669189453	1398.396240234375	-516.3501586914064	109.8077392578125	1486.400024414063	-595.1721801757814	122.1091842651367	1490.56396484375	-530.0764160156251	195.6953887939454	1505.119384765625	-596.7162475585939	-351.2575073242188	1034.176513671875	-840.4566650390627	-319.6466369628907	1004.927429199219	-634.9761352539064	-497.0373840332032	1081.73876953125	-709.4033813476564	-505.4651184082032	1052.586791992188	-739.4205932617189	-493.9335937500001	1048.285888671875	-683.2457275390626	-267.0541381835938	842.748718261719	-931.3037719726565	-184.1038055419922	823.7629394531252	-927.6684570312502	-158.3508911132813	858.8966064453127	-908.5718994140627	-158.6460113525391	768.1284790039065	-925.2213134765627	-99.68763732910159	695.3772583007814	-910.6376953125002	-21.30103874206543	571.4501342773439	-882.174743652344	-76.61403656005861	519.5153808593751	-927.6617431640627	-38.0722885131836	521.4157714843751	-907.9500732421877	-27.76195526123048	443.0192260742189	-870.862731933594	-77.33786773681642	306.6671447753907	-884.1311035156252	-55.50668716430665	320.3648376464844	-806.5147705078127	-146.5879516601563	286.7821044921876	-827.771179199219	63.34984588623048	235.5490112304688	-820.5268554687502	62.64553451538087	229.2721405029297	-859.4652099609377	12.86210918426514	203.5905303955079	-901.7810668945315	-349.9797363281251	798.143737792969	-577.0297851562501	-306.3029785156251	753.0507812500001	-588.2510375976564	-282.1668395996094	754.8808593750001	-612.7064208984376	-323.1986694335938	668.5573120117189	-594.2193603515626	-354.8311462402344	511.5418395996095	-635.0261230468751	-311.5186462402344	338.0778808593751	-712.2728271484376	-358.4466857910157	251.8896026611329	-660.9189453125001	-326.0076293945313	253.4070892333985	-695.1807861328126	-338.2818908691407	215.4320068359376	-738.6399536132814	-394.3391113281251	124.9319305419922	-699.4492797851564	-381.2838134765626	133.964340209961	-773.7002563476565	-455.6877441406251	105.4682846069336	-750.6272583007814	-257.8372497558594	54.77962112426759	-775.2195434570315	-253.4662628173829	61.73791503906251	-730.3438110351564	-292.4971313476563	51.06085205078126	-675.5845947265626	-315.7408447265626	1722.727661132813	-653.2047729492189	-333.3254089355469	1470.054077148438	-723.1308593750001	
1154	5.765	-443.5603027343751	1687.263305664063	-795.7252197265627	-446.7586975097657	1681.171142578125	-655.8979492187501	-470.2639160156251	1508.942626953125	-714.3058471679689	-495.2941284179689	1216.574584960938	-703.9545288085939	-404.313446044922	1525.994262695313	-847.0416259765627	-281.5919799804688	1505.505981445313	-905.2431640625002	-250.4040222167969	1496.272338867188	-861.7518310546877	-215.0024719238282	1503.398681640625	-907.7775878906252	-143.8970794677735	1479.822021484375	-944.5010986328127	-144.1736907958985	1420.083862304688	-936.8426513671877	105.0099029541016	1474.1923828125	-854.3603515625002	103.6947784423828	1486.51123046875	-920.2586059570315	175.60595703125	1490.603515625	-848.1563110351565	-388.9278869628907	1514.699584960938	-600.4517211914064	-269.4226074218751	1457.212768554688	-494.9244079589845	-246.374740600586	1484.572265625	-529.1973876953126	-200.1458587646485	1457.3916015625	-493.1098632812501	-124.3739624023438	1458.586303710938	-503.6262207031251	-131.3477020263672	1398.520263671875	-516.1425170898439	109.7910766601563	1486.485229492188	-595.4675903320314	122.1760025024414	1490.670532226563	-530.3273315429689	195.7101745605469	1505.112426757813	-596.9415893554689	-351.2082214355469	1034.14599609375	-840.5131835937502	-319.6431579589844	1004.916687011719	-634.9749755859376	-497.0336914062501	1081.7353515625	-709.4297485351564	-505.3862609863282	1052.628173828125	-739.4864501953126	-493.8299865722657	1048.26806640625	-683.3093872070314	-267.0845642089844	842.688659667969	-931.3057250976565	-184.0852203369141	823.6853027343752	-927.6863403320315	-158.2953338623047	858.8485107421877	-908.581481933594	-158.5863800048828	768.0242309570315	-925.2219238281252	-99.64926910400393	695.3156738281251	-910.596374511719	-21.20843887329102	571.3912353515626	-882.1140136718752	-76.45082855224611	519.4760131835939	-927.5979003906252	-37.96372985839844	521.3975219726564	-907.9345703125002	-27.55152130126954	443.0209960937501	-870.747253417969	-77.00122833251955	306.6218566894532	-883.9795532226565	-55.32605361938478	320.3638916015626	-806.4443359375002	-146.3856506347657	286.8244934082032	-827.6941528320315	63.46688842773439	235.5805053710938	-820.4253540039065	63.0111656188965	229.271713256836	-859.3538208007815	13.06754493713379	203.5372467041016	-901.6661376953127	-349.9794311523438	798.1437988281252	-577.0286254882814	-306.2192077636719	753.0491943359376	-588.2685546875001	-282.0855712890626	754.9078369140626	-612.7517089843751	-323.0176391601563	668.5328369140626	-594.2171630859376	-354.7300720214844	511.5189208984376	-635.0324096679689	-311.4136962890626	338.0899658203126	-712.2241210937501	-358.4338378906251	251.8950653076172	-660.9380493164064	-325.5969848632813	253.1645965576172	-695.2479858398439	-338.2647705078126	215.4497528076172	-738.7123413085939	-394.3213195800782	124.9381713867188	-699.4649658203126	-381.2214660644532	133.960678100586	-773.6837158203127	-455.7330932617189	105.4686431884766	-750.6029663085939	-257.8357543945313	54.76565551757814	-775.2717285156252	-253.4641113281251	61.69549560546876	-730.3484497070314	-292.5783691406251	51.10748291015626	-675.5603637695314	-315.7442016601563	1722.793212890625	-653.2622070312501	-333.2598571777344	1470.09521484375	-723.2160034179689	
1155	5.77	-443.6273803710939	1687.254150390625	-795.7852172851565	-446.7340393066407	1681.2548828125	-655.9375000000001	-470.2205810546876	1508.942993164063	-714.3621215820314	-495.0897216796876	1216.588745117188	-703.9401245117189	-404.2333984375001	1525.973754882813	-847.0617675781252	-281.5328063964844	1505.405639648438	-905.3152465820315	-250.202865600586	1496.249145507813	-861.8420410156252	-214.9009399414063	1503.28662109375	-907.8642578125002	-143.8489074707032	1479.7099609375	-944.5579223632815	-144.1058959960938	1419.97314453125	-936.836608886719	105.1837463378907	1473.984619140625	-854.471374511719	103.3834609985352	1486.340454101563	-920.4666748046877	175.6907806396485	1490.344848632813	-848.138610839844	-388.9317626953126	1514.7880859375	-600.5881347656251	-269.3607177734376	1457.345092773438	-494.9485473632814	-246.324691772461	1484.641723632813	-529.3053588867189	-200.1876373291016	1457.512451171875	-493.2503356933595	-124.7546005249024	1459.16748046875	-503.930877685547	-131.2851104736328	1398.6279296875	-516.3415527343751	109.6636581420899	1486.442260742188	-595.7921752929689	122.2979583740235	1490.74609375	-530.5536499023439	195.5485839843751	1505.401489257813	-597.1882324218751	-351.1249389648438	1034.147338867188	-840.5491943359377	-319.5228881835938	1004.874267578125	-635.0457153320314	-496.9526672363282	1081.70361328125	-709.5021972656251	-505.3986206054689	1052.5849609375	-739.5288696289064	-493.8006896972657	1048.286376953125	-683.3628540039064	-266.9617919921876	842.6505126953127	-931.3670654296877	-184.0093841552735	823.634948730469	-927.6883544921877	-158.2956848144532	858.8184204101565	-908.6250610351565	-158.5745849609375	768.0144042968752	-925.252868652344	-99.61894226074222	695.2858886718751	-910.5310058593752	-21.17010688781739	571.4024047851564	-882.035583496094	-76.28496551513673	519.3955078125001	-927.5532226562502	-37.86886215209962	521.3483886718751	-907.8619384765627	-27.42788696289063	443.0465393066407	-870.7144165039065	-76.72776794433595	306.5970458984376	-883.9232177734377	-55.14229583740236	320.3412475585938	-806.3792114257815	-146.2472381591797	286.8726196289063	-827.585632324219	63.71123504638673	235.5987091064454	-820.2896118164065	63.25737762451173	229.012680053711	-859.1514282226565	13.08547687530518	203.5302734375001	-901.5935668945315	-349.8560180664063	798.1361083984377	-577.0283813476564	-306.1773071289063	753.0669555664064	-588.3220825195314	-282.0281982421876	754.9016723632814	-612.7348632812501	-323.0137634277344	668.5313110351564	-594.3126220703126	-354.6925354003907	511.5481872558595	-635.0623168945314	-311.2743225097657	338.0571289062501	-712.2394409179689	-358.3818359375001	251.8985595703126	-660.9002075195314	-325.9043884277344	253.3567352294922	-695.2547607421876	-338.1837768554688	215.416000366211	-738.6647949218751	-394.3226013183595	124.978988647461	-699.4891357421876	-381.0299377441407	133.8894653320313	-773.6193847656252	-455.7089233398439	105.5289001464844	-750.5990600585939	-257.7821655273438	54.75317001342775	-775.2312011718752	-253.4450225830079	61.73752975463869	-730.3400268554689	-292.5665588378907	51.13356399536134	-675.6052856445314	-315.7425842285157	1722.776611328125	-653.2418823242189	-333.2723388671876	1470.085083007813	-723.2551269531251	
